<?xml version="1.0" encoding="UTF-8"?>
<svg id="Layer_1" xmlns="http://www.w3.org/2000/svg" xmlns:xlink="http://www.w3.org/1999/xlink" version="1.1" viewBox="0 0 94 94">
  <!-- Generator: Adobe Illustrator 29.8.1, SVG Export Plug-In . SVG Version: 2.1.1 Build 2)  -->
  <defs>
    <style>
      .st0 {
        clip-rule: evenodd;
      }

      .st0, .st1, .st2 {
        fill: #fff;
      }

      .st1 {
        fill-rule: evenodd;
      }

      .st3 {
        clip-path: url(#clippath-1);
      }

      .st4 {
        clip-path: url(#clippath);
      }
    </style>
    <clipPath id="clippath">
      <path class="st0" d="M17.69,34.76c6.63,0,12,5.37,12,12s-5.37,12-12,12-12-5.37-12-12,5.37-12,12-12M17.69,29.11c9.75,0,17.65,7.9,17.65,17.65s-7.9,17.65-17.65,17.65S.04,56.51.04,46.76s7.9-17.65,17.65-17.65Z"/>
    </clipPath>
    <clipPath id="clippath-1">
      <path class="st0" d="M17.69,46.76c9.75,0,17.65,7.9,17.65,17.65h-5.65c0-6.63-5.37-12-12-12v-5.65Z"/>
    </clipPath>
  </defs>
  <g>
    <g>
      <path class="st2" d="M38.34,43.25c-.55-.55-.83-1.23-.83-2.04s.28-1.45.83-2,1.23-.83,2.04-.83,1.45.28,2,.83c.55.55.83,1.22.83,2s-.28,1.49-.83,2.04c-.55.55-1.22.83-2,.83s-1.49-.28-2.04-.83ZM37.99,46.02h4.77v18.36h-4.77v-18.36Z"/>
      <path class="st2" d="M44.31,46.02h4.99l4.19,12.08,4.22-12.08h4.99l-6.83,18.36h-4.77l-6.79-18.36Z"/>
      <path class="st2" d="M76.74,46.99c1.46.84,2.61,2,3.45,3.45.84,1.46,1.27,3.04,1.27,4.75s-.42,3.3-1.27,4.75c-.84,1.46-2,2.61-3.45,3.45-1.46.84-3.04,1.27-4.75,1.27s-3.3-.42-4.75-1.27c-1.46-.84-2.61-1.99-3.45-3.45-.84-1.46-1.27-3.04-1.27-4.75s.42-3.3,1.27-4.75c.84-1.46,1.99-2.61,3.45-3.45,1.46-.84,3.04-1.27,4.75-1.27s3.3.42,4.75,1.27ZM68.65,51.77c-.91.92-1.36,2.06-1.36,3.43s.45,2.51,1.36,3.43c.91.92,2.03,1.38,3.38,1.38s2.46-.46,3.34-1.38,1.32-2.06,1.32-3.43-.44-2.51-1.32-3.43-2-1.38-3.34-1.38-2.47.46-3.38,1.38Z"/>
    </g>
    <g>
      <path class="st2" d="M77.65,40.12c.24-.42.57-.75.99-1,.42-.24.87-.37,1.37-.37s.95.12,1.37.37c.42.24.75.58,1,1,.25.42.37.88.37,1.37s-.12.95-.37,1.37c-.25.42-.58.75-1,1-.42.24-.87.37-1.37.37s-.96-.13-1.34-.4v2.44h-1.39v-4.77c0-.49.12-.95.37-1.37ZM80.98,42.48c.25-.27.38-.6.38-.99s-.13-.73-.38-.99c-.25-.26-.58-.4-.96-.4s-.71.13-.98.4c-.26.27-.39.6-.39.99s.13.73.39.99c.26.27.59.4.98.4s.71-.13.96-.4Z"/>
      <path class="st2" d="M84.64,43.86c-.42-.24-.75-.58-1-1-.25-.42-.37-.88-.37-1.37s.12-.95.37-1.37c.25-.42.58-.75,1-1,.42-.24.87-.37,1.37-.37s.95.12,1.37.37c.42.24.75.58.99,1,.24.42.37.88.37,1.37v2.65h-1.38v-.56c-.08.18-.25.33-.51.46-.26.13-.54.19-.84.19-.49,0-.95-.12-1.37-.37ZM86.99,42.48c.25-.27.38-.6.38-.99s-.13-.73-.38-.99c-.25-.26-.58-.4-.96-.4s-.71.13-.98.4c-.26.27-.39.6-.39.99s.13.73.39.99c.26.27.59.4.98.4s.71-.13.96-.4Z"/>
      <path class="st2" d="M90.39,45.8c-.4-.31-.69-.73-.89-1.26h1.54c.11.13.21.22.32.29.11.06.26.1.44.1.32,0,.55-.08.71-.23.16-.15.23-.36.23-.62v-.03c-.3.13-.62.19-.94.19-.71,0-1.27-.22-1.7-.65-.42-.43-.64-1.08-.64-1.95v-2.79h1.38v2.79c0,.43.08.75.23.95.15.2.39.3.73.3s.57-.1.73-.3c.15-.2.23-.52.23-.95v-2.79h1.38v5.04c0,.45-.1.85-.3,1.21-.2.36-.48.65-.83.86-.35.21-.75.31-1.2.31-.54,0-1.02-.16-1.42-.47Z"/>
    </g>
  </g>
  <g>
    <g>
      <path class="st1" d="M17.69,34.76c6.63,0,12,5.37,12,12s-5.37,12-12,12-12-5.37-12-12,5.37-12,12-12M17.69,29.11c9.75,0,17.65,7.9,17.65,17.65s-7.9,17.65-17.65,17.65S.04,56.51.04,46.76s7.9-17.65,17.65-17.65Z"/>
      <g class="st4">
        <rect class="st2" x=".04" y="29.11" width="35.3" height="35.3"/>
      </g>
    </g>
    <g>
      <path class="st1" d="M17.69,46.76c9.75,0,17.65,7.9,17.65,17.65h-5.65c0-6.63-5.37-12-12-12v-5.65Z"/>
      <g class="st3">
        <rect class="st2" x="17.69" y="46.76" width="17.65" height="17.65"/>
      </g>
    </g>
  </g>
</svg>